<?xml version="1.0" encoding="UTF-8"?>
<svg width="29px" height="29px" viewBox="0 0 29 29" version="1.1" xmlns="http://www.w3.org/2000/svg" xmlns:xlink="http://www.w3.org/1999/xlink">
    <!-- Generator: Sketch 52.6 (67491) - http://www.bohemiancoding.com/sketch -->
    <title>device_hub-24px</title>
    <desc>Created with Sketch.</desc>
    <g id="Page-2" stroke="none" stroke-width="1" fill="none" fill-rule="evenodd">
        <g id="Desktop-HD" transform="translate(-478.000000, -553.000000)">
            <g id="Group-8" transform="translate(276.000000, 534.000000)">
                <g id="device_hub-24px" transform="translate(197.000000, 14.000000)">
                    <polygon id="Path" points="0 0 38 0 38 38 0 38"></polygon>
                    <path d="M27.5555556,25.9444444 L21.1111111,19.5 L21.1111111,14.3766667 C22.98,13.7 24.3333333,11.9277778 24.3333333,9.83333333 C24.3333333,7.15888889 22.1744444,5 19.5,5 C16.8255556,5 14.6666667,7.15888889 14.6666667,9.83333333 C14.6666667,11.9277778 16.02,13.7 17.8888889,14.3766667 L17.8888889,19.5 L11.4444444,25.9444444 L5,25.9444444 L5,34 L13.0555556,34 L13.0555556,29.0861111 L19.5,22.3194444 L25.9444444,29.0861111 L25.9444444,34 L34,34 L34,25.9444444 L27.5555556,25.9444444 Z" id="Path" fill="#000000"></path>
                    <polygon id="Path" points="0 0 38 0 38 38 0 38"></polygon>
                </g>
            </g>
        </g>
    </g>
</svg>