<?xml version="1.0" encoding="UTF-8"?>
<svg width="20px" height="20px" viewBox="0 0 20 20" version="1.1" xmlns="http://www.w3.org/2000/svg" xmlns:xlink="http://www.w3.org/1999/xlink">
    <!-- Generator: Sketch 52.6 (67491) - http://www.bohemiancoding.com/sketch -->
    <title>Fill 51</title>
    <desc>Created with Sketch.</desc>
    <g id="Page-2" stroke="none" stroke-width="1" fill="none" fill-rule="evenodd">
        <g id="Desktop-HD" transform="translate(-530.000000, -349.000000)" fill="#FFFFFE">
            <g id="Group-6" transform="translate(276.000000, 106.000000)">
                <g id="Group-3" transform="translate(232.000000, 233.000000)">
                    <path d="M31.8157439,10 C26.3956309,10 22,14.3950282 22,19.8169492 C22,24.1541243 24.8125047,27.8332203 28.713371,29.1312994 C29.2045198,29.2216949 29.3835028,28.9185687 29.3835028,28.6582298 C29.3835028,28.4250094 29.3750659,27.8079096 29.3702448,26.9889266 C26.6396987,27.5819209 26.0635782,25.6727684 26.0635782,25.6727684 C25.6170245,24.5386064 24.9734087,24.2366855 24.9734087,24.2366855 C24.0821092,23.6280226 25.040904,23.6400753 25.040904,23.6400753 C26.0262147,23.7093785 26.5444821,24.6519021 26.5444821,24.6519021 C27.420113,26.1518644 28.8423352,25.7185687 29.4015819,25.4672693 C29.4907721,24.8332957 29.7444821,24.4006026 30.0247081,24.1553296 C27.8449718,23.907646 25.553145,23.0651601 25.553145,19.3035028 C25.553145,18.2320151 25.9358192,17.3551789 26.5637665,16.6693785 C26.4625235,16.4210923 26.1256497,15.4225235 26.6601883,14.0714124 C26.6601883,14.0714124 27.4839925,13.8074576 29.3593974,15.0778154 C30.1422222,14.859661 30.9822976,14.7511864 31.8169492,14.746968 C32.6509981,14.7511864 33.4904708,14.859661 34.2745009,15.0778154 C36.1487006,13.8074576 36.9712994,14.0714124 36.9712994,14.0714124 C37.5070433,15.4225235 37.1701695,16.4210923 37.0695292,16.6693785 C37.6986817,17.3551789 38.0783427,18.2320151 38.0783427,19.3035028 C38.0783427,23.0748023 35.7829002,23.9046328 33.5965348,24.1474953 C33.9484746,24.4506215 34.2624482,25.0496422 34.2624482,25.9650471 C34.2624482,27.2775895 34.2503955,28.3364218 34.2503955,28.6582298 C34.2503955,28.9209793 34.4275706,29.226516 34.9253484,29.1306968 C38.8232015,27.8296045 41.6332957,24.152919 41.6332957,19.8169492 C41.6332957,14.3950282 37.2376648,10 31.8157439,10" id="Fill-51"></path>
                </g>
            </g>
        </g>
    </g>
</svg>