<?xml version="1.0" encoding="UTF-8"?>
<svg width="32px" height="35px" viewBox="0 0 32 35" version="1.1" xmlns="http://www.w3.org/2000/svg" xmlns:xlink="http://www.w3.org/1999/xlink">
    <!-- Generator: Sketch 52.6 (67491) - http://www.bohemiancoding.com/sketch -->
    <title>phonelink_ring-24px</title>
    <desc>Created with Sketch.</desc>
    <g id="Page-2" stroke="none" stroke-width="1" fill="none" fill-rule="evenodd">
        <g id="Desktop-HD" transform="translate(-962.000000, -730.000000)">
            <g id="Group-11" transform="translate(762.000000, 714.000000)">
                <g id="phonelink_ring-24px" transform="translate(197.000000, 14.000000)">
                    <polygon id="Path" points="0 0 38 0 38 38 0 38"></polygon>
                    <path d="M31.9962453,12.6590909 L30.3942428,14.25 C33.2778473,17.1136364 33.2778473,21.5681818 30.3942428,24.5909091 L31.9962453,26.1818182 C36.0012516,22.5227273 36.0012516,16.4772727 31.9962453,12.6590909 Z M28.6320401,16 L27.0300375,17.5909091 C27.8310388,18.7045455 27.8310388,20.1363636 27.0300375,21.25 L28.6320401,22.8409091 C30.5544431,20.9318182 30.5544431,18.0681818 28.6320401,16 Z M22.22403,2 L6.20400501,2 C4.44180225,2 3,3.43181818 3,5.18181818 L3,33.8181818 C3,35.5681818 4.44180225,37 6.20400501,37 L22.22403,37 C23.9862328,37 25.428035,35.5681818 25.428035,33.8181818 L25.428035,5.18181818 C25.428035,3.43181818 23.9862328,2 22.22403,2 Z M22.22403,32.2272727 L6.20400501,32.2272727 L6.20400501,6.77272727 L22.22403,6.77272727 L22.22403,32.2272727 Z" id="Shape" fill="#000000" fill-rule="nonzero"></path>
                </g>
            </g>
        </g>
    </g>
</svg>