<?xml version="1.0" encoding="UTF-8"?>
<svg width="22px" height="17px" viewBox="0 0 22 17" version="1.1" xmlns="http://www.w3.org/2000/svg" xmlns:xlink="http://www.w3.org/1999/xlink">
    <!-- Generator: Sketch 52.6 (67491) - http://www.bohemiancoding.com/sketch -->
    <title>Path</title>
    <desc>Created with Sketch.</desc>
    <defs>
        <radialGradient cx="100%" cy="43.1111913%" fx="100%" fy="43.1111913%" r="133.520668%" gradientTransform="translate(1.000000,0.431112),scale(0.764977,1.000000),rotate(180.000000),translate(-1.000000,-0.431112)" id="radialGradient-1">
            <stop stop-color="#FD696D" offset="0%"></stop>
            <stop stop-color="#A452BC" offset="100%"></stop>
        </radialGradient>
    </defs>
    <g id="Page-2" stroke="none" stroke-width="1" fill="none" fill-rule="evenodd">
        <g id="Desktop-HD" transform="translate(-1134.000000, -1431.000000)" fill="url(#radialGradient-1)">
            <g id="Group-12" transform="translate(0.000000, 1379.000000)">
                <g id="Group-7" transform="translate(1125.000000, 41.000000)">
                    <path d="M30.5887076,13.5373599 C30.5087564,13.4689201 30.3898737,13.4603969 30.2999539,13.516688 C29.9023535,13.765768 29.3664047,13.8922162 28.9209818,13.956458 C29.4535629,13.5462011 30.074784,12.9013661 30.0706753,12.0704209 C30.0702712,11.9868429 30.0202933,11.9104524 29.9412851,11.8727342 C29.8622769,11.835016 29.7675075,11.8423307 29.6959758,11.8915615 C28.8887184,12.4478573 27.7316158,12.740062 27.3079488,12.8333716 C27.0083509,12.3671416 25.9779443,11 24.1969937,11 C24.0973747,11 23.995735,11.0044524 23.8949036,11.0131664 C21.6816645,11.2053829 20.6092279,12.427567 20.0993457,13.4190532 C19.7769815,14.0458877 19.6354,14.6528136 19.5733654,15.0536569 C19.2223752,14.7647597 18.6101797,14.3251168 17.6989252,13.885156 C16.3068187,13.212907 13.9158281,12.411602 10.4311164,12.411602 C10.0923175,12.411602 9.74429092,12.4191711 9.39666844,12.4341184 C9.31759291,12.4375531 9.24558973,12.4781972 9.20497427,12.5423754 C9.16435882,12.6065536 9.1605869,12.6857427 9.19500564,12.7531012 C9.93874667,14.2117078 11.5386453,15.068477 12.5801656,15.4927273 C12.0087203,15.635713 11.3981414,15.9146877 11.2069187,16.3542033 C11.1098593,16.5773322 11.0849377,16.9279906 11.5172936,17.3314418 C12.1520531,17.9237383 12.8982863,18.2836196 13.5558121,18.5021053 C13.0406762,18.5886727 12.6293352,18.7372557 12.4959711,18.9844911 C12.4452523,19.0786276 12.3873938,19.2718618 12.5700623,19.508984 C13.445753,20.6461273 15.5446223,21.0883143 16.4753426,21.1604432 C16.3572681,21.4253611 16.1113527,21.8555267 15.636428,22.2815579 C14.6216479,23.1916923 13.0215472,23.672806 11.0090952,23.6728696 C11.0088931,23.6728696 11.0086911,23.6728696 11.008489,23.6728696 C10.4616285,23.6728696 9.87469145,23.6378865 9.26377575,23.5688107 C9.16287699,23.5575524 9.06548073,23.6083734 9.02230576,23.6953861 C8.9791308,23.7823351 8.99987633,23.8856308 9.07376548,23.95159 C11.726837,26.3209671 14.738712,27.5735548 17.7838607,27.574 C17.7844669,27.574 17.784871,27.574 17.7854098,27.574 C21.137835,27.574 24.4202103,26.0174405 26.5656896,23.410178 C28.4763672,21.0882507 29.2082536,18.3090619 28.5904003,15.7531291 C29.0031557,15.5862913 29.9142755,15.0929652 30.638416,13.8066665 C30.6890675,13.716728 30.6685914,13.6057996 30.5887076,13.5373599 Z" id="Path"></path>
                </g>
            </g>
        </g>
    </g>
</svg>